<?xml version="1.0" encoding="UTF-8" standalone="no"?>
<!-- Created with Inkscape (http://www.inkscape.org/) -->

<svg
   xmlns:dc="http://purl.org/dc/elements/1.1/"
   xmlns:cc="http://creativecommons.org/ns#"
   xmlns:rdf="http://www.w3.org/1999/02/22-rdf-syntax-ns#"
   xmlns:svg="http://www.w3.org/2000/svg"
   xmlns="http://www.w3.org/2000/svg"
   xmlns:sodipodi="http://sodipodi.sourceforge.net/DTD/sodipodi-0.dtd"
   xmlns:inkscape="http://www.inkscape.org/namespaces/inkscape"
   width="1000"
   height="1000"
   viewBox="0 0 999.99999 999.99999"
   id="svg3365"
   version="1.1"
   inkscape:version="0.91 r13725"
   sodipodi:docname="logov0_5svg.svg">
  <defs
     id="defs3367" />
  <sodipodi:namedview
     id="base"
     pagecolor="#ffffff"
     bordercolor="#666666"
     borderopacity="1.0"
     inkscape:pageopacity="0.0"
     inkscape:pageshadow="2"
     inkscape:zoom="0.38345588"
     inkscape:cx="155.71631"
     inkscape:cy="588.16227"
     inkscape:document-units="px"
     inkscape:current-layer="layer1"
     showgrid="false"
     units="px"
     inkscape:window-width="1440"
     inkscape:window-height="798"
     inkscape:window-x="-1"
     inkscape:window-y="0"
     inkscape:window-maximized="0" />
  <metadata
     id="metadata3370">
    <rdf:RDF>
      <cc:Work
         rdf:about="">
        <dc:format>image/svg+xml</dc:format>
        <dc:type
           rdf:resource="http://purl.org/dc/dcmitype/StillImage" />
        <dc:title></dc:title>
      </cc:Work>
    </rdf:RDF>
  </metadata>
  <g
     inkscape:label="Layer 1"
     inkscape:groupmode="layer"
     id="layer1"
     transform="translate(0,-52.362271)">
    <path
       style="fill:#225500;stroke:#225500"
       id="path3397"
       d="m 533.97288,166.434 c 1.16544,6.32366 3.35848,12.43129 4.13933,18.83642 0.77438,6.3522 0.53491,9.22279 0.49019,15.71706 -0.43781,11.67634 -1.58188,23.6763 -5.36019,34.82399 -2.98898,8.81881 -4.94756,11.43232 -9.53181,19.70222 -14.67642,24.4424 -37.27334,41.98169 -59.78174,58.75915 -26.22841,18.80173 -54.09038,35.12745 -81.44909,52.18881 -25.23044,15.40601 -48.38792,33.80512 -70.76692,53.03653 -17.1587,15.36528 -33.36665,32.05215 -46.36371,51.15587 -2.41971,3.55661 -4.56723,7.29096 -6.85084,10.93644 -12.82173,20.32429 -19.33301,43.27915 -24.69336,66.45015 -4.33435,20.66856 -5.80989,41.74264 -4.86505,62.80346 1.38012,19.02741 5.60418,37.86662 12.84037,55.5404 1.667,4.0715 3.61806,8.02082 5.4271,12.03123 10.66733,20.98713 23.83142,41.10291 40.67297,57.71086 3.35121,3.30472 7.02682,6.26347 10.54023,9.39521 14.35556,11.61028 30.14731,21.38562 47.37439,28.11904 11.65171,4.55421 14.6325,4.96349 26.69677,8.13012 29.63491,6.34154 59.66658,10.82534 89.70178,14.80555 32.10115,4.7777 64.47256,6.31373 96.88244,5.65249 24.76101,-1.1576 48.92214,-7.73298 71.38531,-18.11975 4.54995,-2.10385 8.92582,-4.56536 13.38873,-6.84804 -5.9991,3.30206 -11.27323,8.61015 -17.9973,9.90618 -4.88076,0.94075 8.22569,-5.60637 12.06543,-8.76284 3.77372,-3.1022 7.34689,-6.45795 10.73326,-9.97891 10.57299,-10.99319 18.49054,-23.61 26.46436,-36.50185 10.21117,-18.28167 18.2614,-37.93359 23.58606,-58.20822 3.47585,-13.23493 3.87779,-17.94596 6.04036,-31.51687 2.71621,-23.11206 4.44593,-46.41218 3.31667,-69.6882 -0.81848,-16.8701 -1.47385,-19.41483 -3.60281,-36.03949 -4.53906,-32.56001 -14.74147,-63.74308 -27.03003,-94.09514 -11.03315,-25.91262 -24.55671,-50.65528 -38.5226,-75.07683 -12.01467,-20.6199 -23.56539,-41.52252 -36.02811,-61.87667 -10.59572,-17.14472 -23.01061,-33.0181 -35.63577,-48.68569 -11.81555,-13.53031 -23.71892,-26.99278 -36.4796,-39.6431 -10.1146,-9.17022 -19.76064,-18.73393 -28.64299,-29.09877 0,0 32.65627,-19.64326 32.65627,-19.64326 l 0,0 c 8.66502,10.34461 18.11981,19.93012 28.01002,29.1108 12.77722,12.80229 24.68376,26.42211 36.53855,40.07552 12.79096,15.74824 24.88954,32.02838 35.64229,49.25487 12.41285,20.43037 23.80651,41.46188 35.69791,62.19735 13.93955,24.62908 27.60988,49.49101 38.46238,75.67146 12.35365,30.69421 22.48538,62.23478 27.06497,95.12856 2.11445,16.54225 2.79778,19.60367 3.75342,36.35714 1.33583,23.41844 -0.30529,46.83504 -2.74429,70.13118 -1.98942,13.51054 -2.40703,18.69993 -5.71125,31.90246 -5.13675,20.52475 -13.28813,40.37337 -23.14944,59.04303 -7.83861,13.09639 -15.64218,25.99646 -25.98994,37.33316 -18.51127,20.28039 -43.1498,32.17461 -66.91025,45.43102 -4.51791,2.20686 -8.95593,4.5854 -13.55374,6.62058 -22.78983,10.08774 -47.1754,16.31936 -72.13967,17.00097 -32.51869,0.34932 -64.95234,-1.47961 -97.17071,-6.10714 -30.20687,-4.05296 -60.45,-8.45723 -90.22209,-15.02425 -11.8424,-3.28055 -15.59921,-3.95678 -27.03117,-8.58836 -17.44413,-7.06736 -33.46464,-17.13639 -47.93838,-29.1188 -3.57433,-3.23681 -7.31336,-6.30054 -10.72298,-9.71041 -16.96392,-16.96515 -30.4345,-37.38747 -41.40901,-58.60035 -4.54137,-9.8577 -6.8026,-14.0872 -10.29455,-24.31213 -4.87225,-14.26662 -7.85628,-29.21661 -9.15565,-44.21665 -1.10135,-21.38116 0.37645,-42.78761 4.60446,-63.80504 5.2887,-23.53121 11.75149,-46.91645 24.47382,-67.68049 2.26236,-3.74032 4.37325,-7.57656 6.78709,-11.22097 12.85969,-19.41558 29.08051,-36.38702 46.24128,-52.00992 22.35592,-19.44784 45.49818,-38.08691 70.78345,-53.64527 27.31312,-17.13878 55.25874,-33.31928 81.60922,-51.95011 22.23594,-16.29581 44.63965,-33.35602 59.55795,-57.00283 4.32024,-7.43595 6.68819,-10.68889 9.56367,-18.67587 3.88079,-10.77933 5.18695,-22.52727 5.61915,-33.88652 0.11127,-11.95509 -1.19125,-21.79805 -5.05127,-33.09571 0,0 33.98466,-18.52483 33.98466,-18.52483 z"
       inkscape:connector-curvature="0" />
    <path
       style="fill:#225500;stroke:#225500"
       id="path3407"
       d="m 394.24603,454.2633 c 1.79168,0.0433 3.58301,0.15472 5.37504,0.12988 4.99863,-0.0693 9.98277,-0.6692 14.98187,-0.68095 10.46537,-0.0246 20.71076,1.49347 31.02467,3.06299 17.32654,3.4566 34.73579,7.34636 51.39071,13.3566 10.26601,3.70468 12.72526,5.20879 22.51092,9.94466 18.35882,9.19423 35.11297,21.16835 52.68358,31.72676 12.30162,7.96591 25.99349,12.54992 40.37165,14.78776 5.00674,0.65419 9.67481,-0.42149 14.46002,-1.67907 0,0 -30.47292,23.12143 -30.47292,23.12143 l 0,0 c -5.08362,0.82149 -10.05651,1.40178 -15.19333,0.40026 -14.48026,-2.90188 -28.19745,-8.15354 -40.58718,-16.32342 -17.31691,-10.62356 -33.91574,-22.48573 -52.06258,-31.69045 -23.41924,-11.06567 -47.60306,-18.54581 -73.28905,-22.33123 -10.07661,-1.21926 -12.37011,-1.7331 -22.14686,-2.06909 -10.10375,-0.34723 -20.13862,0.86238 -30.23546,0.90394 0,0 31.18892,-22.66007 31.18892,-22.66007 z"
       inkscape:connector-curvature="0" />
    <path
       style="fill:#225500;stroke:#225500"
       id="path3409"
       d="m 362.22968,584.11861 c 13.15894,-1.39083 26.01053,0.92161 38.80726,3.7012 19.68852,4.87818 38.28718,12.96618 56.67284,21.36417 18.11458,8.43757 36.5303,16.12563 55.13909,23.38646 19.27319,7.9789 39.31764,14.05649 59.55747,19.03723 16.7004,3.98931 33.64403,7.71623 50.8936,6.63659 1.69419,-0.19675 3.38838,-0.3935 5.08257,-0.59025 0,0 -30.69384,22.72323 -30.69384,22.72323 l 0,0 c -1.70063,0.10817 -3.40127,0.21634 -5.1019,0.3245 -17.23216,-0.0218 -34.03268,-4.03261 -50.71255,-8.03755 -20.38627,-5.20773 -40.65445,-11.18948 -60.12364,-19.22709 -18.58572,-7.30623 -36.84988,-15.35939 -54.98674,-23.71717 -18.30885,-8.18188 -36.86792,-16.04217 -56.50956,-20.46005 -12.88387,-2.41183 -25.94126,-4.19988 -39.01729,-2.02951 0,0 30.99269,-23.11176 30.99269,-23.11176 z"
       inkscape:connector-curvature="0" />
    <path
       style="fill:#225500;stroke:#225500"
       id="path3411"
       d="m 554.65383,401.37144 c 0.81215,16.78543 1.86637,33.56552 2.21509,50.36868 0.23861,23.97502 -0.009,47.94409 -1.02598,71.89791 -1.49458,21.22269 -6.08912,42.06909 -11.89062,62.48803 -5.21717,18.93827 -12.43337,37.07981 -21.3515,54.55055 -9.18427,18.01575 -20.57182,34.58581 -33.59975,50.00054 -13.37733,14.84362 -28.74095,27.90499 -44.586,40.04531 -6.82939,5.10302 -14.0496,9.64277 -21.14505,14.35843 0,0 -35.51643,13.90032 -35.51643,13.90032 l 0,0 c 7.22407,-4.84953 14.66734,-9.36096 21.76544,-14.39757 16.18072,-11.68085 31.45342,-24.93595 45.18634,-39.40116 13.20123,-15.03537 24.59232,-31.34393 33.80669,-49.14491 9.09491,-17.23652 16.52349,-35.1242 21.76532,-53.93303 5.96219,-20.1754 10.65902,-40.81015 12.49853,-61.80601 1.14815,-23.87483 1.5304,-47.76641 1.16126,-71.66947 -0.52612,-16.42623 -1.7033,-32.86212 -3.52799,-49.19252 0,0 34.24465,-18.0651 34.24465,-18.0651 z"
       inkscape:connector-curvature="0" />
    <path
       style="fill:#225500;stroke:#225500"
       id="path3417"
       d="m 384.72814,785.51055 c -1.37044,12.30182 -3.5487,24.3709 -7.10205,36.22679 -4.26755,14.20937 -11.92371,26.91007 -20.30004,39.02259 -7.01581,10.51979 -16.39321,18.71141 -26.90685,25.53839 -20.15018,12.42974 -40.02808,25.68817 -62.12875,34.38201 -7.18865,2.68956 -14.73197,4.35103 -21.93632,6.963 -14.40683,4.23426 -21.04906,15.90488 27.53948,-16.66402 2.84225,-1.90516 -3.89362,-2.82996 0.24295,-3.23314 1.08997,-0.10624 2.18815,0.0962 3.28223,0.14424 12.90053,-0.16961 25.62398,0.99217 38.36577,2.91846 20.10135,3.49274 40.25496,6.68852 60.45725,9.54303 17.24651,2.4211 34.65031,3.12051 52.03944,3.50561 14.60156,0.55159 29.25876,-0.95021 43.33586,-4.86399 12.14692,-5.58873 35.8714,-17.57915 -18.34184,11.07253 -1.44346,0.76287 2.63089,-1.93907 3.86997,-3.00219 3.54521,-3.04179 3.56987,-3.40109 6.45926,-6.98027 6.0807,-9.50092 9.15696,-20.27247 10.93719,-31.29668 1.27562,-9.55892 1.3114,-19.2123 1.35255,-28.83664 0.49529,-7.90094 -0.43856,-15.51867 -2.88883,-23.02194 -1.68497,-4.90306 -3.42631,-9.781 -5.51391,-14.5286 0,0 33.61292,-18.93278 33.61292,-18.93278 l 0,0 c 2.16933,4.85693 3.91933,9.86903 5.58675,14.91767 2.63318,7.85073 3.93371,15.85842 3.39443,24.1636 -0.0462,9.83036 -0.28594,19.67482 -1.36318,29.45422 -1.57374,11.51479 -4.58959,22.53801 -10.01981,32.89768 -12.76789,19.36992 -36.04874,29.26774 -57.2923,37.19757 -14.29965,3.21908 -28.9343,4.45301 -43.5896,3.7818 -17.41374,-0.43067 -34.81891,-1.40303 -52.05803,-4.04779 -20.23656,-3.01787 -40.43769,-6.24789 -60.65819,-9.36916 -12.95877,-1.61957 -25.90149,-2.21828 -38.95861,-2.14738 -26.4708,-2.08303 15.29118,-22.16092 30.66252,-26.31123 7.21886,-2.13604 14.45869,-4.25702 21.49577,-6.9423 12.76702,-5.29816 31.10213,-16.79999 -18.15856,12.04027 -1.67389,0.98 3.34846,-1.95905 5.00993,-2.95997 1.6489,-0.99333 3.28757,-2.00367 4.9208,-3.02255 1.61126,-1.00517 3.20829,-2.03298 4.81243,-3.04947 10.71293,-6.36736 20.5497,-13.88559 27.74634,-24.25129 8.51918,-11.70593 16.3231,-24.04618 20.7912,-37.92919 3.6601,-11.45899 6.12999,-23.19946 6.63872,-35.25671 0,0 34.66311,-17.12217 34.66311,-17.12217 z"
       inkscape:connector-curvature="0" />
  </g>
</svg>
